/* XPM */
static char *result[] = {
/* columns rows colors chars-per-pixel */
"32 32 8 1 ",
"  c #C29D62",
". c #B8945F",
"X c #AF8F55",
"o c #8B8B8A",
"O c #987E47",
"+ c #8A6938",
"@ c #7E6237",
"# c #67502C",
/* pixels */
".                              .",
"+..............................+",
"+..XXX.XX....XXX.XX..XXX.XXX...+",
"+.XX.XXX...XX..XX......XXX.XX.X+",
"+..X....XXXX..XX..XX.........XX+",
"+X....XXX.......XXX...XXX.XX..X@",
"@X..XXXXXXXX.XX.....XXX..XXXXXX@",
"##@##@######@#@####@@#@###@#####",
"#++++++++++++++++++++++++++++++#",
"#++++++++++++++++++++++++++++++#",
"#++++++++++++++++++++++++++++++#",
"@.XXX..XX..XX.X+.XX..XX...X.X.X@",
"@..X.XXX....XXX+..XXX...X..XXXX@",
"@X.....XXX.X..X+X...XX.XXX....X@",
"@XX.XXXX.XXXXXXOXXX...XX.XX.XXX#",
"@OOOOO+++OOOOO++OOOOOOOOOOOOOO+#",
"@XXX.XX+XXXXXXXXXXX.X...O..X.XX#",
"@X....X+XXX.XX.......XX.O.....X@",
"@...X..OX.....X...XXX...OXX..X.@",
"#.oXXX.O.XXX...XXX...XX O..XXo.#",
"#..X.XXO...XXXX...X. .. O....XX#",
"@X....XO.XX.....  .  .  OX....X@",
"#XX.XXXOX...            OX.XXXX#",
"#++OOOOOOOOOOOOOOOOOOOOOOOOO+++#",
"#.             O              .#",
"@X...XX........O........X.....X@",
"#X.....XXX..X.XO..XXXX...XX...X#",
"@.oXXX....XX..XO.XX...XX...XXo.@",
"#....XX..X..XXX+....XX.XXXX.XX.@",
"#X.XX..XX.....X+X..XX.........X#",
"@XXX..X.XX.XXXX+XXX...XX.XXXXXX#",
"####@#@@@##@#####@##@#@@@#@##@##"
};
