/* XPM */
static char *result[] = {
/* columns rows colors chars-per-pixel */
"32 32 9 1 ",
"  c #8B673C",
". c #886539",
"X c #82613A",
"o c #805E36",
"O c #7A5A34",
"+ c #70522E",
"@ c #614B2E",
"# c #5A4424",
"$ c #553A1F",
/* pixels */
"oooooo oo      o ooooo o   oo   ",
" $@@@@@#$##@+++++++@+@@+++++++$ ",
" @OOXXOO+@++OOOXXXOO++O+XOX++O@o",
" @O++OOXXOOOXX++OOOXXXOXXXOO++@ ",
" @+OOOXOOXXXOOOO+++++OXXO+++OX@ ",
" @O+++OOXXO+++++OOXXXXOOOOOXXX@o",
" @XXO+++++OOOOO+++O++++O+OOOO+@ ",
" $@#@###@@##$$$$$####$#$$$$$### ",
"o@+X+.........X@.....X..XOO++O@ ",
"o+XXOOOXXXOOOXX+XXOOXXOOXXXOOX+o",
"o+XXXXOO++XO+++++O+++OOXO++++++o",
"o+OOOOXXXXXXXO+@O++OXXXXXXOOOO+o",
"o+XO+++OXOOOOXX@XOOOOX+O++++OO+o",
"o+OXXXOXX+++OOX@OOXXXXOOXOXX+++ ",
"o+O++O++OO+O+++@+++O+OOOO++++O+ ",
" $$$#$###@@#$#$$$$$$$####@#@@#$ ",
"o@...X.XXOOO...........X....XX@ ",
"o+OXXXOOOXXXXXXOOXOOOOOOOOXXOO+o",
" +XO+++@++OOOOXXXXXXXXOXXXO+++@ ",
" +XXXXOOXO++++O+OOOXXO+XOO+OOX@o",
" +OOXO++++OOXXXOXO++OXO+++++OO+o",
" +++XXOXOOOXO+++++OXXXXXOOOXXX+o",
"o+OOOO+O++++++OO+OOOO+++++++OO+o",
" $$##@#@@@@##$$$$$##@@###$#$$$$o",
" @O+OX....X.XXO+.....+..XOOX..@o",
"o@+O+OXXOOOOOXX+OOOXXXOOOOXXOO+ ",
"o@XXXXXOO++++OO++O++OXXXXXOOOX+ ",
"o@XOOOOXXXOOO+++OXXXOO+OXO+@++@ ",
"o@O+++++OOXXXXO+OOOXXXO++++OOX@ ",
"o@+OOXXXXX++OOX++++OOXXOXOO+++@o",
"o$+++++++++++@@$@@@@+++++++++@$o",
"o     oo  ooooooo o    oo oooooo"
};