/* XPM */
static char *ff374adfa4004d7db8bd830f5662e91ejSxoPJGTRBX3kSxC[] = {
/* columns rows colors chars-per-pixel */
"32 32 8 1 ",
"  c #EEF6C9",
". c #ECFBAF",
"X c #E8F4B2",
"o c #DDE4A5",
"O c #D6D695",
"+ c #CECE96",
"@ c #C2BB88",
"# c #A9A274",
/* pixels */
"@OooX.     .    .. .    .. .o+##",
"OoXX.X...X.XX...X..X...XX.XoXo@#",
"OXX...XXXXXX...XooXXX...XXXXooO@",
"oX.XX..Xo.XXX...XXoXXX.XooXXXoO@",
"o..XoXXXXX....XX.XXXX...XXooXXO@",
"oX..XooXXoo..XXoXXX..X...XXoooO+",
"ooXoOOooooXX..XXoo.oX.....XXXoO+",
"oXXOOOOoXXXXXooooXXX...Xo.XXooO+",
"oXoOo.X...XoOOooXXoXXX..XXoXooO@",
"OoooXXooXXXXoooooooooXXXX..oXoO+",
"ooOOoXXXXooooOOOOOooXooooXoOOoO@",
"OooOOoXXoXoOooOO@OOoooXOooooooO@",
"OOOOooOooOOOOO@@OooooXooOOoooOO#",
"OO@OOooOOO@OOOOOoooOOooOO@@OOO@#",
"@@OOOOOOOOO@@OOOOOO@OOOOOOO@@@##",
"##@+++@@+@@@########@+@+++@##@##",
".  ...    . .XO@@#@ooX.. ..     ",
".....X.....XXoXO@#OXX.XXX...XX..",
"XX..XX...XX.XXooO@oXXX.XooX...XX",
"...Xo..XXXXXXooXO@oX.XXXXX...XoX",
"XXXXXXXooX..XXXXO@o..XoXXXX..XXX",
"ooXXXXXXooX...XoO+o.X.XXX.....XX",
"XXooXX.....XXooOO@ooXXoo...X.XXX",
"XooXX.XX..XXoXooO+oXXooXXX..Xooo",
"oX..XoooOoOOoooOO+ooXXXoOoXXXXoo",
"OoXX.XoOOOoOOooO@+OoooXXoOoXoooo",
"OOoooOOOoXXXooOOO@OOoOoOOOooOoOO",
"ooOoooOOOoXXXXoOO#OoooOOOooooOOO",
"OoooOO@@OoOOooOO@#@OOO@@OOoOOOOo",
"oooooOOOoOOOOOOO@#@@OOOOOOOOOOOO",
"OOOOOOOOOOOOO@@@###@@@OOOOOO@@@O",
"##@@++@++++@@#@#####@#@@@##@####"
};