/* XPM */
static char *_5da88e866e74e52ba3290c43e8fb200kvVMw00VfZs2DxiF[] = {
/* columns rows colors chars-per-pixel */
"32 32 8 1 ",
"  c #6EC59F",
". c #59B292",
"X c #5EAB81",
"o c #51A48B",
"O c #53A178",
"+ c #4C9484",
"@ c #3D7864",
"# c #366451",
/* pixels */
"   .     .  ...@     . .   .  .#",
" ooooO+++OOO+OO@ oOoO++++OO++OO@",
" ooOO+OO++++O+O# o+O++OO+++O++O#",
" ooXOOoO+O+++++@ OO++O+Oo+OooO+#",
" oooXXoOOXOO++O# OoO+++OOOXXOXo#",
" ooOoXXXOXXOO++# oOOoO++OXOXXXX@",
" ooOOOoXXXO++O+# OooO++O+oXXXoO#",
" oooOXXXXX+O++O# OOo++OoOXXXoXo#",
".oOO+OXoOXXOO+o# oOOO+oOXoOXoO+#",
" OOOO+OOXXXXXOO@.OO+oOoooXoOO+O#",
".oOoO++OXooXoOo@ O+OOoOoOOOo++O#",
".ooO++OooXOoO+o@.++O+OOooO+OO++@",
".Oo++OooOooOO++#.O+++OoOooo+O++@",
".+OO++O+OO+O++O#.OO+++O+OoO++++@",
".++++++OOoO++Oo#.o++O+++O++++O+#",
"@@####@###@#@#@@#@##@#####@#@@##",
"    ..    .. ..@        ..  . .@",
" O+OO++++Oo++++@ O++++++O+++O++#",
" OO++++O++OoO++@ ++O++O++OO++O+@",
" OOO++O+OOXo+O+@ +OoO++OXO+OXoO@",
" o++O+OXXoXOOO+# O+oo+OOOXXOooo#",
" +o+OOoOXXOoO++@ OoOoO+OOOXXXoX#",
" OoO+oXoXXXoo+O@.oOOooOXOOOXXXo@",
" oooOOXXXXooXO+# OooOooOXOXXOXo#",
".ooOOOOXOXXXooO#.+oO+oXoXXXXOOO@",
".oOooOXOOOXoooO# +++OoOXXXOoO+O@",
" OOoo+OXOOO+Ooo# O+OooOOOX+OOO+#",
".OOOoO+OOOOO+Oo# O++OOO+oOO++O+#",
".O+OO+++OO+++oO@.+O++O+Oo+OO+++#",
".++O+OO+++++OOO@.O+++++oO++O+++#",
".O++++O+O++O+OO#.++O++OOOO++O+O@",
"##@@@@#@####@@####@@@@#@####@@@@"
};